<svg xmlns="http://www.w3.org/2000/svg" viewBox="0 0 208.34 133.3"><defs><style>.cls-1{fill:#fff;}.cls-2{fill:#ff2a00;}</style></defs><g id="Слой_2" data-name="Слой 2"><g id="Слой_1-2" data-name="Слой 1"><path class="cls-1" d="M63.48,97.66V133.3H31.15V97.66h6.94L36,79.59H21.58L19.43,97.66H27V133.3H0V97.66H6.15L19.43,0H44L57.71,97.66ZM34.18,65.92l-5.37-41-5.57,41Z"/><path class="cls-2" d="M65.85,0H91c13.35,0,29.5.3,29.5.3v133H65.85V97.66h6.54V34.08H65.85ZM91,34.08V97.66l12.5-.36-3-31,2-32Z"/><path class="cls-1" d="M208.34,0V34.08H201.7V97.66h6.64V133.3h-31V97.66H183V24.9L167.81,133.3h-7.72L143.59,25.88V97.66h6.54V133.3H123.18V97.66h6.44V34.08h-6.44V0h34.08l8.79,61,8.89-61Z"/></g></g></svg>